# xmcd
# 
# Track frame offsets:
#     151
#     19944
#     38853
#     50903
#     65578
#     84951
# 
# Disc length: 1384
# 
# Revision: 0
# Processed by: cddbd v1.5.2PL0 Copyright (c) Steve Scherf et al.
# Submitted via: fre:ac v1.0.17
# 
DISCID=4c056606
DTITLE=Sympathetic Magic - 13 [EP]
DYEAR=2001
DGENRE=
TTITLE0=Nowhere
TTITLE1=Advent (PG-16 Version)
TTITLE2=Compost
TTITLE3=How Many Days?
TTITLE4=Linear
TTITLE5=Advent (Radio Edit)
EXTD=
EXTT0=
EXTT1=
EXTT2=
EXTT3=
EXTT4=
EXTT5=
PLAYORDER=
